<?xml version="1.0" encoding="UTF-8"?>
<!DOCTYPE svg PUBLIC "-//W3C//DTD SVG 1.1//EN" "http://www.w3.org/Graphics/SVG/1.1/DTD/svg11.dtd">
<!-- Creator: CorelDRAW X8 -->
<svg xmlns="http://www.w3.org/2000/svg" xml:space="preserve" width="816px" height="1056px" version="1.1" style="shape-rendering:geometricPrecision; text-rendering:geometricPrecision; image-rendering:optimizeQuality; fill-rule:evenodd; clip-rule:evenodd"
viewBox="0 0 816 1056"
 xmlns:xlink="http://www.w3.org/1999/xlink">
 <defs>
  <style type="text/css">
   <![CDATA[
    .fil0 {fill:#FD457C}
   ]]>
  </style>
 </defs>
 <g id="Layer_x0020_1">
  <metadata id="CorelCorpID_0Corel-Layer"/>
  <g id="_1764343634416">
   <path class="fil0" d="M106 348c0,18 -2,38 1,55 1,8 8,33 11,41 2,7 4,18 10,19 9,1 -7,-25 25,-58 10,-9 21,-15 37,-19 19,-5 28,1 43,7 13,5 21,17 29,27 7,10 9,26 11,44l276 0c2,-16 1,-20 6,-32 8,-19 18,-31 36,-40 25,-8 37,-10 60,0 6,3 18,12 22,16 15,17 19,27 20,55 9,0 18,0 26,0 0,-29 -3,-46 -19,-69 -46,-49 -91,-49 -148,-35 -43,12 -97,19 -156,19 -16,0 -49,-4 -66,-7 -54,-10 -107,-20 -161,-31 -9,-2 -18,-4 -29,-4 -12,0 -23,0 -34,0l0 12z"/>
   <path class="fil0" d="M180 324c10,6 160,31 177,33 16,2 33,4 49,4 16,0 37,1 53,0 7,-1 61,-10 63,-16 -1,-6 -8,-12 -12,-15 -46,-34 -114,-47 -163,-47 -31,0 -62,4 -91,14 -5,1 -75,24 -76,27z"/>
   <path class="fil0" d="M627 516c26,0 48,-29 48,-54l0 -5c0,-26 -23,-55 -48,-55l-12 0c-23,0 -48,27 -48,50l0 15c0,22 24,49 48,49l12 0z"/>
   <path class="fil0" d="M208 516c25,0 49,-29 49,-53l0 -8c0,-24 -25,-53 -49,-53l-12 0c-24,0 -48,27 -48,51l0 12c0,23 22,51 48,51l12 0z"/>
  </g>
 </g>
</svg>
